solid ascii
  facet normal 1.000000e+000 4.554583e-013 8.775582e-007
    outer loop
      vertex   2.012211e+001 -1.158748e+001 1.206736e+001
      vertex   2.012212e+001 -2.012211e+001 1.200001e+000
      vertex   2.012211e+001 -7.912484e+000 1.206736e+001
    endloop
  endfacet
  facet normal 1.000000e+000 2.843661e-007 5.580694e-007
    outer loop
      vertex   2.012211e+001 -7.912484e+000 1.206736e+001
      vertex   2.012212e+001 -2.012211e+001 1.200001e+000
      vertex   2.012211e+001 2.012211e+001 1.200001e+000
    endloop
  endfacet
  facet normal 1.000000e+000 1.205276e-007 1.354140e-007
    outer loop
      vertex   2.012211e+001 -7.912484e+000 1.206736e+001
      vertex   2.012211e+001 2.012211e+001 1.200001e+000
      vertex   2.012211e+001 7.912514e+000 1.206736e+001
    endloop
  endfacet
  facet normal 1.000000e+000 0.000000e+000 0.000000e+000
    outer loop
      vertex   2.012211e+001 7.912514e+000 1.206736e+001
      vertex   2.012211e+001 2.012211e+001 1.200001e+000
      vertex   2.012211e+001 1.158751e+001 1.206736e+001
    endloop
  endfacet
  facet normal 1.000000e+000 8.795773e-007 6.907691e-007
    outer loop
      vertex   2.012211e+001 1.158751e+001 1.206736e+001
      vertex   2.012211e+001 2.012211e+001 1.200001e+000
      vertex   2.012210e+001 1.342502e+001 1.525000e+001
    endloop
  endfacet
  facet normal 1.000000e+000 8.222129e-007 6.634257e-007
    outer loop
      vertex   2.012210e+001 1.342502e+001 1.525000e+001
      vertex   2.012211e+001 2.012211e+001 1.200001e+000
      vertex   2.012209e+001 2.012211e+001 2.420000e+001
    endloop
  endfacet
  facet normal 1.000000e+000 5.124908e-007 8.951842e-007
    outer loop
      vertex   2.012210e+001 1.342502e+001 1.525000e+001
      vertex   2.012209e+001 2.012211e+001 2.420000e+001
      vertex   2.012210e+001 1.158751e+001 1.843264e+001
    endloop
  endfacet
  facet normal 1.000000e+000 5.190064e-007 8.855424e-007
    outer loop
      vertex   2.012210e+001 1.158751e+001 1.843264e+001
      vertex   2.012209e+001 2.012211e+001 2.420000e+001
      vertex   2.012210e+001 7.912515e+000 1.843264e+001
    endloop
  endfacet
  facet normal 1.000000e+000 9.373032e-007 2.979605e-013
    outer loop
      vertex   2.012210e+001 7.912515e+000 1.843264e+001
      vertex   2.012209e+001 2.012211e+001 2.420000e+001
      vertex   2.012209e+001 2.012210e+001 3.020000e+001
    endloop
  endfacet
  facet normal 1.000000e+000 1.205276e-007 8.474715e-007
    outer loop
      vertex   2.012210e+001 7.912515e+000 1.843264e+001
      vertex   2.012209e+001 2.012210e+001 3.020000e+001
      vertex   2.012211e+001 -7.912483e+000 1.843264e+001
    endloop
  endfacet
  facet normal 1.000000e+000 1.421831e-007 7.958793e-007
    outer loop
      vertex   2.012211e+001 -7.912483e+000 1.843264e+001
      vertex   2.012209e+001 2.012210e+001 3.020000e+001
      vertex   2.012210e+001 -2.012210e+001 3.020000e+001
    endloop
  endfacet
  facet normal 1.000000e+000 0.000000e+000 6.483525e-007
    outer loop
      vertex   2.012211e+001 -7.912483e+000 1.843264e+001
      vertex   2.012210e+001 -2.012210e+001 3.020000e+001
      vertex   2.012211e+001 -1.158748e+001 1.843264e+001
    endloop
  endfacet
  facet normal 1.000000e+000 -3.765856e-008 6.210395e-007
    outer loop
      vertex   2.012211e+001 -1.158748e+001 1.843264e+001
      vertex   2.012210e+001 -2.012210e+001 3.020000e+001
      vertex   2.012211e+001 -1.342498e+001 1.525000e+001
    endloop
  endfacet
  facet normal 1.000000e+000 1.910131e-007 7.234770e-007
    outer loop
      vertex   2.012211e+001 -1.342498e+001 1.525000e+001
      vertex   2.012210e+001 -2.012210e+001 3.020000e+001
      vertex   2.012212e+001 -2.012211e+001 1.200001e+000
    endloop
  endfacet
  facet normal 1.000000e+000 2.041994e-007 7.171917e-007
    outer loop
      vertex   2.012211e+001 -1.342498e+001 1.525000e+001
      vertex   2.012212e+001 -2.012211e+001 1.200001e+000
      vertex   2.012211e+001 -1.158748e+001 1.206736e+001
    endloop
  endfacet
  facet normal 1.000000e+000 1.205276e-007 5.297106e-007
    outer loop
      vertex   2.012210e+001 7.912515e+000 1.843264e+001
      vertex   2.012211e+001 -7.912483e+000 1.843264e+001
      vertex   2.012211e+001 6.075014e+000 1.525000e+001
    endloop
  endfacet
  facet normal 1.000000e+000 1.569835e-007 6.899317e-007
    outer loop
      vertex   2.012211e+001 6.075014e+000 1.525000e+001
      vertex   2.012211e+001 -7.912483e+000 1.843264e+001
      vertex   2.012211e+001 -6.074984e+000 1.525000e+001
    endloop
  endfacet
  facet normal 1.000000e+000 1.569835e-007 5.086623e-007
    outer loop
      vertex   2.012211e+001 6.075014e+000 1.525000e+001
      vertex   2.012211e+001 -6.074984e+000 1.525000e+001
      vertex   2.012211e+001 -7.912484e+000 1.206736e+001
    endloop
  endfacet
  facet normal 1.000000e+000 1.205275e-007 6.688837e-007
    outer loop
      vertex   2.012211e+001 7.912514e+000 1.206736e+001
      vertex   2.012211e+001 6.075014e+000 1.525000e+001
      vertex   2.012211e+001 -7.912484e+000 1.206736e+001
    endloop
  endfacet
  facet normal 9.478884e-008 1.000000e+000 5.725186e-013
    outer loop
      vertex   -2.012207e+001 2.012211e+001 3.020000e+001
      vertex   2.012209e+001 2.012210e+001 3.020000e+001
      vertex   -2.012203e+001 2.012211e+001 2.420000e+001
    endloop
  endfacet
  facet normal 4.739449e-008 1.000000e+000 3.178912e-007
    outer loop
      vertex   -2.012203e+001 2.012211e+001 2.420000e+001
      vertex   2.012209e+001 2.012210e+001 3.020000e+001
      vertex   2.012209e+001 2.012211e+001 2.420000e+001
    endloop
  endfacet
  facet normal 4.739445e-008 1.000000e+000 -9.380427e-008
    outer loop
      vertex   -2.012203e+001 2.012211e+001 2.420000e+001
      vertex   2.012209e+001 2.012211e+001 2.420000e+001
      vertex   -5.996243e+000 2.012211e+001 1.100375e+001
    endloop
  endfacet
  facet normal -0.000000e+000 1.184859e-008 1.000000e+000
    outer loop
      vertex   7.912516e+000 2.012210e+001 4.067356e+000
      vertex   7.912516e+000 -2.012209e+001 4.067356e+000
      vertex   1.158751e+001 2.012210e+001 4.067356e+000
    endloop
  endfacet
  facet normal 1.297517e-007 0.000000e+000 1.000000e+000
    outer loop
      vertex   1.158751e+001 2.012210e+001 4.067356e+000
      vertex   7.912516e+000 -2.012209e+001 4.067356e+000
      vertex   1.158751e+001 -2.012210e+001 4.067356e+000
    endloop
  endfacet
  facet normal 8.660252e-001 0.000000e+000 -5.000003e-001
    outer loop
      vertex   -1.158749e+001 2.012210e+001 1.043264e+001
      vertex   -1.158749e+001 -2.012206e+001 1.043264e+001
      vertex   -1.342499e+001 2.012210e+001 7.250000e+000
    endloop
  endfacet
  facet normal 8.660252e-001 -5.924306e-009 -5.000004e-001
    outer loop
      vertex   -1.342499e+001 2.012210e+001 7.250000e+000
      vertex   -1.158749e+001 -2.012206e+001 1.043264e+001
      vertex   -1.342499e+001 -2.012206e+001 7.250001e+000
    endloop
  endfacet
  facet normal -8.660254e-001 -5.924299e-009 -5.000000e-001
    outer loop
      vertex   -6.074986e+000 -2.012207e+001 7.250001e+000
      vertex   -7.912486e+000 -2.012207e+001 1.043264e+001
      vertex   -6.074986e+000 2.012211e+001 7.250000e+000
    endloop
  endfacet
  facet normal -8.660254e-001 0.000000e+000 -4.999999e-001
    outer loop
      vertex   -6.074986e+000 2.012211e+001 7.250000e+000
      vertex   -7.912486e+000 -2.012207e+001 1.043264e+001
      vertex   -7.912486e+000 2.012210e+001 1.043264e+001
    endloop
  endfacet
  facet normal 8.660254e-001 5.924297e-009 5.000001e-001
    outer loop
      vertex   6.075015e+000 2.012211e+001 7.250000e+000
      vertex   6.075015e+000 -2.012209e+001 7.250001e+000
      vertex   7.912516e+000 2.012210e+001 4.067356e+000
    endloop
  endfacet
  facet normal 8.660254e-001 5.924298e-009 5.000001e-001
    outer loop
      vertex   7.912516e+000 2.012210e+001 4.067356e+000
      vertex   6.075015e+000 -2.012209e+001 7.250001e+000
      vertex   7.912516e+000 -2.012209e+001 4.067356e+000
    endloop
  endfacet
  facet normal 1.297516e-007 -0.000000e+000 1.000000e+000
    outer loop
      vertex   -7.912486e+000 -2.012207e+001 4.067356e+000
      vertex   -7.912486e+000 2.012210e+001 4.067356e+000
      vertex   -1.158749e+001 -2.012207e+001 4.067356e+000
    endloop
  endfacet
  facet normal 0.000000e+000 1.184860e-008 1.000000e+000
    outer loop
      vertex   -1.158749e+001 -2.012207e+001 4.067356e+000
      vertex   -7.912486e+000 2.012210e+001 4.067356e+000
      vertex   -1.158749e+001 2.012210e+001 4.067356e+000
    endloop
  endfacet
  facet normal 8.660253e-001 -5.924300e-009 -5.000002e-001
    outer loop
      vertex   6.075015e+000 -2.012209e+001 7.250001e+000
      vertex   6.075015e+000 2.012211e+001 7.250000e+000
      vertex   7.912516e+000 -2.012209e+001 1.043264e+001
    endloop
  endfacet
  facet normal 8.660253e-001 0.000000e+000 -5.000002e-001
    outer loop
      vertex   7.912516e+000 -2.012209e+001 1.043264e+001
      vertex   6.075015e+000 2.012211e+001 7.250000e+000
      vertex   7.912516e+000 2.012211e+001 1.043264e+001
    endloop
  endfacet
  facet normal 8.660253e-001 5.924304e-009 5.000001e-001
    outer loop
      vertex   -1.342499e+001 -2.012206e+001 7.250001e+000
      vertex   -1.158749e+001 -2.012207e+001 4.067356e+000
      vertex   -1.342499e+001 2.012210e+001 7.250000e+000
    endloop
  endfacet
  facet normal 8.660253e-001 5.924302e-009 5.000001e-001
    outer loop
      vertex   -1.342499e+001 2.012210e+001 7.250000e+000
      vertex   -1.158749e+001 -2.012207e+001 4.067356e+000
      vertex   -1.158749e+001 2.012210e+001 4.067356e+000
    endloop
  endfacet
  facet normal -8.660255e-001 5.924297e-009 4.999999e-001
    outer loop
      vertex   -6.074986e+000 2.012211e+001 7.250000e+000
      vertex   -7.912486e+000 2.012210e+001 4.067356e+000
      vertex   -6.074986e+000 -2.012207e+001 7.250001e+000
    endloop
  endfacet
  facet normal -8.660255e-001 -6.967766e-018 4.999998e-001
    outer loop
      vertex   -6.074986e+000 -2.012207e+001 7.250001e+000
      vertex   -7.912486e+000 2.012210e+001 4.067356e+000
      vertex   -7.912486e+000 -2.012207e+001 4.067356e+000
    endloop
  endfacet
  facet normal 0.000000e+000 0.000000e+000 -1.000000e+000
    outer loop
      vertex   7.912516e+000 2.012211e+001 1.043264e+001
      vertex   1.158751e+001 2.012211e+001 1.043264e+001
      vertex   7.912516e+000 -2.012209e+001 1.043264e+001
    endloop
  endfacet
  facet normal 2.595033e-007 -2.369718e-008 -1.000000e+000
    outer loop
      vertex   7.912516e+000 -2.012209e+001 1.043264e+001
      vertex   1.158751e+001 2.012211e+001 1.043264e+001
      vertex   1.158751e+001 -2.012210e+001 1.043264e+001
    endloop
  endfacet
  facet normal -8.660252e-001 -1.184860e-008 -5.000003e-001
    outer loop
      vertex   1.158751e+001 2.012211e+001 1.043264e+001
      vertex   1.342502e+001 2.012211e+001 7.250000e+000
      vertex   1.158751e+001 -2.012210e+001 1.043264e+001
    endloop
  endfacet
  facet normal -8.660253e-001 -5.924299e-009 -5.000002e-001
    outer loop
      vertex   1.158751e+001 -2.012210e+001 1.043264e+001
      vertex   1.342502e+001 2.012211e+001 7.250000e+000
      vertex   1.342502e+001 -2.012210e+001 7.250001e+000
    endloop
  endfacet
  facet normal -1.000000e+000 1.113769e-005 -6.045266e-006
    outer loop
      vertex   -2.012252e+001 -2.012205e+001 3.020000e+001
      vertex   -2.012207e+001 2.012211e+001 3.020000e+001
      vertex   -2.012213e+001 7.912515e+000 1.843264e+001
    endloop
  endfacet
  facet normal -1.000000e+000 1.113255e-005 -6.039937e-006
    outer loop
      vertex   -2.012213e+001 7.912515e+000 1.843264e+001
      vertex   -2.012207e+001 2.012211e+001 3.020000e+001
      vertex   -2.012203e+001 2.012211e+001 2.420000e+001
    endloop
  endfacet
  facet normal -1.000000e+000 1.089914e-005 -5.545788e-006
    outer loop
      vertex   -2.012213e+001 7.912515e+000 1.843264e+001
      vertex   -2.012203e+001 2.012211e+001 2.420000e+001
      vertex   -2.012209e+001 1.158751e+001 1.843264e+001
    endloop
  endfacet
  facet normal -1.000000e+000 1.126217e-005 -6.083016e-006
    outer loop
      vertex   -2.012209e+001 1.158751e+001 1.843264e+001
      vertex   -2.012203e+001 2.012211e+001 2.420000e+001
      vertex   -2.012205e+001 1.342502e+001 1.525000e+001
    endloop
  endfacet
  facet normal -1.000000e+000 5.681813e-006 -1.907351e-006
    outer loop
      vertex   -2.012205e+001 1.342502e+001 1.525000e+001
      vertex   -2.012203e+001 2.012211e+001 2.420000e+001
      vertex   -2.012199e+001 2.012211e+001 1.200033e+000
    endloop
  endfacet
  facet normal -1.000000e+000 4.947713e-006 -2.257269e-006
    outer loop
      vertex   -2.012205e+001 1.342502e+001 1.525000e+001
      vertex   -2.012199e+001 2.012211e+001 1.200033e+000
      vertex   -2.012206e+001 1.158751e+001 1.206736e+001
    endloop
  endfacet
  facet normal -1.000000e+000 1.141814e-005 2.824248e-006
    outer loop
      vertex   -2.012206e+001 1.158751e+001 1.206736e+001
      vertex   -2.012199e+001 2.012211e+001 1.200033e+000
      vertex   -2.012210e+001 7.912514e+000 1.206736e+001
    endloop
  endfacet
  facet normal -1.000000e+000 8.862756e-006 -4.676588e-008
    outer loop
      vertex   -2.012210e+001 7.912514e+000 1.206736e+001
      vertex   -2.012199e+001 2.012211e+001 1.200033e+000
      vertex   -2.012234e+001 -2.012206e+001 1.200001e+000
    endloop
  endfacet
  facet normal -1.000000e+000 1.108854e-005 -5.788627e-006
    outer loop
      vertex   -2.012210e+001 7.912514e+000 1.206736e+001
      vertex   -2.012234e+001 -2.012206e+001 1.200001e+000
      vertex   -2.012227e+001 -7.912484e+000 1.206736e+001
    endloop
  endfacet
  facet normal -1.000000e+000 1.141814e-005 -6.158935e-006
    outer loop
      vertex   -2.012227e+001 -7.912484e+000 1.206736e+001
      vertex   -2.012234e+001 -2.012206e+001 1.200001e+000
      vertex   -2.012231e+001 -1.158748e+001 1.206736e+001
    endloop
  endfacet
  facet normal -1.000000e+000 1.085656e-005 -5.717904e-006
    outer loop
      vertex   -2.012231e+001 -1.158748e+001 1.206736e+001
      vertex   -2.012234e+001 -2.012206e+001 1.200001e+000
      vertex   -2.012235e+001 -1.342498e+001 1.525000e+001
    endloop
  endfacet
  facet normal -1.000000e+000 1.127920e-005 -5.919360e-006
    outer loop
      vertex   -2.012235e+001 -1.342498e+001 1.525000e+001
      vertex   -2.012234e+001 -2.012206e+001 1.200001e+000
      vertex   -2.012252e+001 -2.012205e+001 3.020000e+001
    endloop
  endfacet
  facet normal -1.000000e+000 1.128564e-005 -5.916475e-006
    outer loop
      vertex   -2.012235e+001 -1.342498e+001 1.525000e+001
      vertex   -2.012252e+001 -2.012205e+001 3.020000e+001
      vertex   -2.012235e+001 -1.158748e+001 1.843264e+001
    endloop
  endfacet
  facet normal -1.000000e+000 1.089914e-005 -6.196796e-006
    outer loop
      vertex   -2.012235e+001 -1.158748e+001 1.843264e+001
      vertex   -2.012252e+001 -2.012205e+001 3.020000e+001
      vertex   -2.012231e+001 -7.912483e+000 1.843264e+001
    endloop
  endfacet
  facet normal -1.000000e+000 1.120906e-005 -5.875220e-006
    outer loop
      vertex   -2.012231e+001 -7.912483e+000 1.843264e+001
      vertex   -2.012252e+001 -2.012205e+001 3.020000e+001
      vertex   -2.012213e+001 7.912515e+000 1.843264e+001
    endloop
  endfacet
  facet normal -1.000000e+000 1.120906e-005 -5.872262e-006
    outer loop
      vertex   -2.012231e+001 -7.912483e+000 1.843264e+001
      vertex   -2.012213e+001 7.912515e+000 1.843264e+001
      vertex   -2.012214e+001 6.075015e+000 1.525000e+001
    endloop
  endfacet
  facet normal -1.000000e+000 1.108854e-005 -5.583975e-006
    outer loop
      vertex   -2.012210e+001 7.912514e+000 1.206736e+001
      vertex   -2.012227e+001 -7.912484e+000 1.206736e+001
      vertex   -2.012214e+001 6.075015e+000 1.525000e+001
    endloop
  endfacet
  facet normal -1.000000e+000 1.114582e-005 -5.835745e-006
    outer loop
      vertex   -2.012214e+001 6.075015e+000 1.525000e+001
      vertex   -2.012227e+001 -7.912484e+000 1.206736e+001
      vertex   -2.012227e+001 -6.074984e+000 1.525000e+001
    endloop
  endfacet
  facet normal -1.000000e+000 1.114582e-005 -6.150196e-006
    outer loop
      vertex   -2.012214e+001 6.075015e+000 1.525000e+001
      vertex   -2.012227e+001 -6.074984e+000 1.525000e+001
      vertex   -2.012231e+001 -7.912483e+000 1.843264e+001
    endloop
  endfacet
  facet normal -8.660253e-001 5.924297e-009 5.000001e-001
    outer loop
      vertex   1.342502e+001 2.012211e+001 7.250000e+000
      vertex   1.158751e+001 2.012210e+001 4.067356e+000
      vertex   1.342502e+001 -2.012210e+001 7.250001e+000
    endloop
  endfacet
  facet normal -8.660253e-001 0.000000e+000 5.000001e-001
    outer loop
      vertex   1.342502e+001 -2.012210e+001 7.250001e+000
      vertex   1.158751e+001 2.012210e+001 4.067356e+000
      vertex   1.158751e+001 -2.012210e+001 4.067356e+000
    endloop
  endfacet
  facet normal 0.000000e+000 0.000000e+000 -1.000000e+000
    outer loop
      vertex   -1.158749e+001 -2.012206e+001 1.043264e+001
      vertex   -1.158749e+001 2.012210e+001 1.043264e+001
      vertex   -7.912486e+000 -2.012207e+001 1.043264e+001
    endloop
  endfacet
  facet normal 0.000000e+000 0.000000e+000 -1.000000e+000
    outer loop
      vertex   -7.912486e+000 -2.012207e+001 1.043264e+001
      vertex   -1.158749e+001 2.012210e+001 1.043264e+001
      vertex   -7.912486e+000 2.012210e+001 1.043264e+001
    endloop
  endfacet
  facet normal 3.244516e-006 1.000000e+000 -2.472521e-006
    outer loop
      vertex   -1.350374e+001 2.012211e+001 1.100375e+001
      vertex   -1.158749e+001 2.012210e+001 1.043264e+001
      vertex   -1.342499e+001 2.012210e+001 7.250000e+000
    endloop
  endfacet
  facet normal -1.268259e-007 1.000000e+000 2.510170e-007
    outer loop
      vertex   2.012209e+001 2.012211e+001 2.420000e+001
      vertex   7.912516e+000 2.012211e+001 1.043264e+001
      vertex   -5.996243e+000 2.012211e+001 1.100375e+001
    endloop
  endfacet
  facet normal -1.579951e-007 1.000000e+000 -5.080785e-007
    outer loop
      vertex   6.075015e+000 2.012211e+001 7.250000e+000
      vertex   -5.996243e+000 2.012211e+001 1.100375e+001
      vertex   7.912516e+000 2.012211e+001 1.043264e+001
    endloop
  endfacet
  facet normal 0.000000e+000 1.000000e+000 1.385414e-007
    outer loop
      vertex   2.012209e+001 2.012211e+001 2.420000e+001
      vertex   1.158751e+001 2.012211e+001 1.043264e+001
      vertex   7.912516e+000 2.012211e+001 1.043264e+001
    endloop
  endfacet
  facet normal -1.557019e-006 1.000000e+000 1.884550e-006
    outer loop
      vertex   -5.996243e+000 2.012211e+001 1.100375e+001
      vertex   -7.912486e+000 2.012210e+001 1.043264e+001
      vertex   -1.158749e+001 2.012210e+001 1.043264e+001
    endloop
  endfacet
  facet normal -7.116237e-007 1.000000e+000 -7.877371e-007
    outer loop
      vertex   1.158751e+001 2.012210e+001 4.067356e+000
      vertex   1.342502e+001 2.012211e+001 7.250000e+000
      vertex   2.012211e+001 2.012211e+001 1.200001e+000
    endloop
  endfacet
  facet normal 0.000000e+000 1.000000e+000 0.000000e+000
    outer loop
      vertex   2.012209e+001 2.012211e+001 2.420000e+001
      vertex   2.012211e+001 2.012211e+001 1.200001e+000
      vertex   1.342502e+001 2.012211e+001 7.250000e+000
    endloop
  endfacet
  facet normal -0.000000e+000 1.000000e+000 3.339750e-006
    outer loop
      vertex   -1.350374e+001 2.012211e+001 3.496250e+000
      vertex   -1.158749e+001 2.012210e+001 4.067356e+000
      vertex   -5.996243e+000 2.012211e+001 3.496250e+000
    endloop
  endfacet
  facet normal 0.000000e+000 1.000000e+000 3.339750e-006
    outer loop
      vertex   -5.996243e+000 2.012211e+001 3.496250e+000
      vertex   -1.158749e+001 2.012210e+001 4.067356e+000
      vertex   -7.912486e+000 2.012210e+001 4.067356e+000
    endloop
  endfacet
  facet normal 3.159901e-007 1.000000e+000 -1.016156e-006
    outer loop
      vertex   7.912516e+000 2.012210e+001 4.067356e+000
      vertex   -5.996243e+000 2.012211e+001 3.496250e+000
      vertex   6.075015e+000 2.012211e+001 7.250000e+000
    endloop
  endfacet
  facet normal 1.869518e-007 1.000000e+000 2.126455e-006
    outer loop
      vertex   2.012211e+001 2.012211e+001 1.200001e+000
      vertex   -5.996243e+000 2.012211e+001 3.496250e+000
      vertex   7.912516e+000 2.012210e+001 4.067356e+000
    endloop
  endfacet
  facet normal 4.739492e-008 1.000000e+000 5.390865e-007
    outer loop
      vertex   -2.012199e+001 2.012211e+001 1.200033e+000
      vertex   -5.996243e+000 2.012211e+001 3.496250e+000
      vertex   2.012211e+001 2.012211e+001 1.200001e+000
    endloop
  endfacet
  facet normal -1.001620e-006 1.000000e+000 -2.101127e-008
    outer loop
      vertex   -7.912486e+000 2.012210e+001 4.067356e+000
      vertex   -6.074986e+000 2.012211e+001 7.250000e+000
      vertex   -5.996243e+000 2.012211e+001 3.496250e+000
    endloop
  endfacet
  facet normal 3.848413e-023 1.000000e+000 8.306479e-007
    outer loop
      vertex   -2.012199e+001 2.012211e+001 1.200033e+000
      vertex   -1.350374e+001 2.012211e+001 3.496250e+000
      vertex   -5.996243e+000 2.012211e+001 3.496250e+000
    endloop
  endfacet
  facet normal 0.000000e+000 1.000000e+000 -0.000000e+000
    outer loop
      vertex   -5.996243e+000 2.012211e+001 3.496250e+000
      vertex   -6.074986e+000 2.012211e+001 7.250000e+000
      vertex   6.075015e+000 2.012211e+001 7.250000e+000
    endloop
  endfacet
  facet normal 0.000000e+000 1.000000e+000 0.000000e+000
    outer loop
      vertex   6.075015e+000 2.012211e+001 7.250000e+000
      vertex   -6.074986e+000 2.012211e+001 7.250000e+000
      vertex   -5.996243e+000 2.012211e+001 1.100375e+001
    endloop
  endfacet
  facet normal 2.396734e-007 1.000000e+000 2.535563e-006
    outer loop
      vertex   -1.350374e+001 2.012211e+001 3.496250e+000
      vertex   -1.342499e+001 2.012210e+001 7.250000e+000
      vertex   -1.158749e+001 2.012210e+001 4.067356e+000
    endloop
  endfacet
  facet normal 1.210947e-004 1.000000e+000 0.000000e+000
    outer loop
      vertex   -1.350374e+001 2.012211e+001 1.100375e+001
      vertex   -1.342499e+001 2.012210e+001 7.250000e+000
      vertex   -1.350374e+001 2.012211e+001 3.496250e+000
    endloop
  endfacet
  facet normal 0.000000e+000 1.000000e+000 1.330389e-006
    outer loop
      vertex   2.012211e+001 2.012211e+001 1.200001e+000
      vertex   7.912516e+000 2.012210e+001 4.067356e+000
      vertex   1.158751e+001 2.012210e+001 4.067356e+000
    endloop
  endfacet
  facet normal 0.000000e+000 1.000000e+000 -1.445372e-007
    outer loop
      vertex   -2.012203e+001 2.012211e+001 2.420000e+001
      vertex   -5.996243e+000 2.012211e+001 1.100375e+001
      vertex   -1.350374e+001 2.012211e+001 1.100375e+001
    endloop
  endfacet
  facet normal -1.001621e-006 1.000000e+000 2.101103e-008
    outer loop
      vertex   -5.996243e+000 2.012211e+001 1.100375e+001
      vertex   -6.074986e+000 2.012211e+001 7.250000e+000
      vertex   -7.912486e+000 2.012210e+001 1.043264e+001
    endloop
  endfacet
  facet normal 0.000000e+000 1.000000e+000 -1.335898e-005
    outer loop
      vertex   -5.996243e+000 2.012211e+001 1.100375e+001
      vertex   -1.158749e+001 2.012210e+001 1.043264e+001
      vertex   -1.350374e+001 2.012211e+001 1.100375e+001
    endloop
  endfacet
  facet normal 6.162699e-007 1.000000e+000 -2.434931e-007
    outer loop
      vertex   2.012209e+001 2.012211e+001 2.420000e+001
      vertex   1.342502e+001 2.012211e+001 7.250000e+000
      vertex   1.158751e+001 2.012211e+001 1.043264e+001
    endloop
  endfacet
  facet normal 2.881946e-007 1.000000e+000 5.496884e-013
    outer loop
      vertex   -2.012203e+001 2.012211e+001 2.420000e+001
      vertex   -1.350374e+001 2.012211e+001 1.100375e+001
      vertex   -2.012199e+001 2.012211e+001 1.200033e+000
    endloop
  endfacet
  facet normal 2.881955e-007 1.000000e+000 0.000000e+000
    outer loop
      vertex   -2.012199e+001 2.012211e+001 1.200033e+000
      vertex   -1.350374e+001 2.012211e+001 1.100375e+001
      vertex   -1.350374e+001 2.012211e+001 3.496250e+000
    endloop
  endfacet
  facet normal 3.237093e-008 8.660252e-001 -5.000004e-001
    outer loop
      vertex   2.012211e+001 6.075014e+000 1.525000e+001
      vertex   -2.012214e+001 6.075015e+000 1.525000e+001
      vertex   2.012210e+001 7.912515e+000 1.843264e+001
    endloop
  endfacet
  facet normal 1.026117e-008 8.660253e-001 -5.000002e-001
    outer loop
      vertex   2.012210e+001 7.912515e+000 1.843264e+001
      vertex   -2.012214e+001 6.075015e+000 1.525000e+001
      vertex   -2.012213e+001 7.912515e+000 1.843264e+001
    endloop
  endfacet
  facet normal 2.052225e-008 8.660254e-001 5.000000e-001
    outer loop
      vertex   2.012211e+001 -1.158748e+001 1.206736e+001
      vertex   -2.012231e+001 -1.158748e+001 1.206736e+001
      vertex   2.012211e+001 -1.342498e+001 1.525000e+001
    endloop
  endfacet
  facet normal -1.184852e-008 8.660253e-001 5.000003e-001
    outer loop
      vertex   2.012211e+001 -1.342498e+001 1.525000e+001
      vertex   -2.012231e+001 -1.158748e+001 1.206736e+001
      vertex   -2.012235e+001 -1.342498e+001 1.525000e+001
    endloop
  endfacet
  facet normal 0.000000e+000 -8.660253e-001 -5.000002e-001
    outer loop
      vertex   -2.012209e+001 1.158751e+001 1.843264e+001
      vertex   -2.012205e+001 1.342502e+001 1.525000e+001
      vertex   2.012210e+001 1.158751e+001 1.843264e+001
    endloop
  endfacet
  facet normal 1.184861e-008 -8.660253e-001 -5.000003e-001
    outer loop
      vertex   2.012210e+001 1.158751e+001 1.843264e+001
      vertex   -2.012205e+001 1.342502e+001 1.525000e+001
      vertex   2.012210e+001 1.342502e+001 1.525000e+001
    endloop
  endfacet
  facet normal 0.000000e+000 8.660254e-001 5.000001e-001
    outer loop
      vertex   2.012211e+001 7.912514e+000 1.206736e+001
      vertex   -2.012210e+001 7.912514e+000 1.206736e+001
      vertex   2.012211e+001 6.075014e+000 1.525000e+001
    endloop
  endfacet
  facet normal 8.673764e-009 8.660254e-001 5.000000e-001
    outer loop
      vertex   2.012211e+001 6.075014e+000 1.525000e+001
      vertex   -2.012210e+001 7.912514e+000 1.206736e+001
      vertex   -2.012214e+001 6.075015e+000 1.525000e+001
    endloop
  endfacet
  facet normal -1.184854e-008 -8.660255e-001 4.999999e-001
    outer loop
      vertex   -2.012227e+001 -6.074984e+000 1.525000e+001
      vertex   -2.012227e+001 -7.912484e+000 1.206736e+001
      vertex   2.012211e+001 -6.074984e+000 1.525000e+001
    endloop
  endfacet
  facet normal -1.184854e-008 -8.660255e-001 4.999999e-001
    outer loop
      vertex   2.012211e+001 -6.074984e+000 1.525000e+001
      vertex   -2.012227e+001 -7.912484e+000 1.206736e+001
      vertex   2.012211e+001 -7.912484e+000 1.206736e+001
    endloop
  endfacet
  facet normal -7.968200e-007 -2.265886e-013 -1.000000e+000
    outer loop
      vertex   2.012211e+001 2.012211e+001 1.200001e+000
      vertex   2.012212e+001 -2.012211e+001 1.200001e+000
      vertex   -2.012199e+001 2.012211e+001 1.200033e+000
    endloop
  endfacet
  facet normal 1.019641e-012 7.968186e-007 -1.000000e+000
    outer loop
      vertex   -2.012199e+001 2.012211e+001 1.200033e+000
      vertex   2.012212e+001 -2.012211e+001 1.200001e+000
      vertex   -2.012234e+001 -2.012206e+001 1.200001e+000
    endloop
  endfacet
  facet normal 0.000000e+000 8.660252e-001 -5.000004e-001
    outer loop
      vertex   -2.012235e+001 -1.158748e+001 1.843264e+001
      vertex   2.012211e+001 -1.158748e+001 1.843264e+001
      vertex   -2.012235e+001 -1.342498e+001 1.525000e+001
    endloop
  endfacet
  facet normal 1.184853e-008 8.660251e-001 -5.000005e-001
    outer loop
      vertex   -2.012235e+001 -1.342498e+001 1.525000e+001
      vertex   2.012211e+001 -1.158748e+001 1.843264e+001
      vertex   2.012211e+001 -1.342498e+001 1.525000e+001
    endloop
  endfacet
  facet normal -1.038013e-006 -1.000000e+000 6.220441e-008
    outer loop
      vertex   1.158751e+001 -2.012210e+001 1.043264e+001
      vertex   2.012210e+001 -2.012210e+001 3.020000e+001
      vertex   7.912516e+000 -2.012209e+001 1.043264e+001
    endloop
  endfacet
  facet normal -1.325803e-006 -1.000000e+000 2.399618e-007
    outer loop
      vertex   7.912516e+000 -2.012209e+001 1.043264e+001
      vertex   2.012210e+001 -2.012210e+001 3.020000e+001
      vertex   -7.912486e+000 -2.012207e+001 1.043264e+001
    endloop
  endfacet
  facet normal -1.325803e-006 -1.000000e+000 1.661562e-007
    outer loop
      vertex   7.912516e+000 -2.012209e+001 1.043264e+001
      vertex   -7.912486e+000 -2.012207e+001 1.043264e+001
      vertex   6.075015e+000 -2.012209e+001 7.250001e+000
    endloop
  endfacet
  facet normal -1.255867e-006 -1.000000e+000 4.735189e-007
    outer loop
      vertex   6.075015e+000 -2.012209e+001 7.250001e+000
      vertex   -7.912486e+000 -2.012207e+001 1.043264e+001
      vertex   -6.074986e+000 -2.012207e+001 7.250001e+000
    endloop
  endfacet
  facet normal -1.255867e-006 -1.000000e+000 1.257783e-007
    outer loop
      vertex   6.075015e+000 -2.012209e+001 7.250001e+000
      vertex   -6.074986e+000 -2.012207e+001 7.250001e+000
      vertex   -7.912486e+000 -2.012207e+001 4.067356e+000
    endloop
  endfacet
  facet normal -1.570260e-006 -1.000000e+000 2.920029e-007
    outer loop
      vertex   1.158751e+001 -2.012210e+001 1.043264e+001
      vertex   1.342502e+001 -2.012210e+001 7.250001e+000
      vertex   2.012210e+001 -2.012210e+001 3.020000e+001
    endloop
  endfacet
  facet normal -1.245764e-006 -1.000000e+000 1.973110e-007
    outer loop
      vertex   2.012210e+001 -2.012210e+001 3.020000e+001
      vertex   1.342502e+001 -2.012210e+001 7.250001e+000
      vertex   2.012212e+001 -2.012211e+001 1.200001e+000
    endloop
  endfacet
  facet normal -1.291697e-006 -1.000000e+000 1.464652e-007
    outer loop
      vertex   2.012212e+001 -2.012211e+001 1.200001e+000
      vertex   1.342502e+001 -2.012210e+001 7.250001e+000
      vertex   1.158751e+001 -2.012210e+001 4.067356e+000
    endloop
  endfacet
  facet normal -1.557020e-006 -1.000000e+000 -6.432611e-007
    outer loop
      vertex   2.012212e+001 -2.012211e+001 1.200001e+000
      vertex   1.158751e+001 -2.012210e+001 4.067356e+000
      vertex   7.912516e+000 -2.012209e+001 4.067356e+000
    endloop
  endfacet
  facet normal -1.205275e-006 -1.000000e+000 8.545163e-007
    outer loop
      vertex   2.012212e+001 -2.012211e+001 1.200001e+000
      vertex   7.912516e+000 -2.012209e+001 4.067356e+000
      vertex   -7.912486e+000 -2.012207e+001 4.067356e+000
    endloop
  endfacet
  facet normal -1.205275e-006 -1.000000e+000 -9.656944e-008
    outer loop
      vertex   -7.912486e+000 -2.012207e+001 4.067356e+000
      vertex   7.912516e+000 -2.012209e+001 4.067356e+000
      vertex   6.075015e+000 -2.012209e+001 7.250001e+000
    endloop
  endfacet
  facet normal -1.279640e-006 -1.000000e+000 1.274452e-007
    outer loop
      vertex   2.012212e+001 -2.012211e+001 1.200001e+000
      vertex   -7.912486e+000 -2.012207e+001 4.067356e+000
      vertex   -2.012234e+001 -2.012206e+001 1.200001e+000
    endloop
  endfacet
  facet normal -1.557019e-006 -1.000000e+000 1.308592e-006
    outer loop
      vertex   -2.012234e+001 -2.012206e+001 1.200001e+000
      vertex   -7.912486e+000 -2.012207e+001 4.067356e+000
      vertex   -1.158749e+001 -2.012207e+001 4.067356e+000
    endloop
  endfacet
  facet normal -1.104492e-006 -1.000000e+000 -3.838245e-008
    outer loop
      vertex   -2.012234e+001 -2.012206e+001 1.200001e+000
      vertex   -1.158749e+001 -2.012207e+001 4.067356e+000
      vertex   -1.342499e+001 -2.012206e+001 7.250001e+000
    endloop
  endfacet
  facet normal -1.317398e-006 -1.000000e+000 1.973041e-007
    outer loop
      vertex   -2.012234e+001 -2.012206e+001 1.200001e+000
      vertex   -1.342499e+001 -2.012206e+001 7.250001e+000
      vertex   -2.012252e+001 -2.012205e+001 3.020000e+001
    endloop
  endfacet
  facet normal -6.693213e-007 -1.000000e+000 3.864332e-007
    outer loop
      vertex   -2.012252e+001 -2.012205e+001 3.020000e+001
      vertex   -1.342499e+001 -2.012206e+001 7.250001e+000
      vertex   -1.158749e+001 -2.012206e+001 1.043264e+001
    endloop
  endfacet
  facet normal -1.557019e-006 -1.000000e+000 3.148169e-009
    outer loop
      vertex   -2.012252e+001 -2.012205e+001 3.020000e+001
      vertex   -1.158749e+001 -2.012206e+001 1.043264e+001
      vertex   -7.912486e+000 -2.012207e+001 1.043264e+001
    endloop
  endfacet
  facet normal -1.279635e-006 -1.000000e+000 1.744849e-007
    outer loop
      vertex   2.012210e+001 -2.012210e+001 3.020000e+001
      vertex   -2.012252e+001 -2.012205e+001 3.020000e+001
      vertex   -7.912486e+000 -2.012207e+001 1.043264e+001
    endloop
  endfacet
  facet normal -1.184861e-008 -8.660253e-001 5.000002e-001
    outer loop
      vertex   -2.012205e+001 1.342502e+001 1.525000e+001
      vertex   -2.012206e+001 1.158751e+001 1.206736e+001
      vertex   2.012210e+001 1.342502e+001 1.525000e+001
    endloop
  endfacet
  facet normal 0.000000e+000 -8.660253e-001 5.000001e-001
    outer loop
      vertex   2.012210e+001 1.342502e+001 1.525000e+001
      vertex   -2.012206e+001 1.158751e+001 1.206736e+001
      vertex   2.012211e+001 1.158751e+001 1.206736e+001
    endloop
  endfacet
  facet normal -2.369708e-008 5.190063e-007 1.000000e+000
    outer loop
      vertex   2.012211e+001 -7.912484e+000 1.206736e+001
      vertex   -2.012227e+001 -7.912484e+000 1.206736e+001
      vertex   2.012211e+001 -1.158748e+001 1.206736e+001
    endloop
  endfacet
  facet normal 1.844839e-014 7.785097e-007 1.000000e+000
    outer loop
      vertex   2.012211e+001 -1.158748e+001 1.206736e+001
      vertex   -2.012227e+001 -7.912484e+000 1.206736e+001
      vertex   -2.012231e+001 -1.158748e+001 1.206736e+001
    endloop
  endfacet
  facet normal 0.000000e+000 0.000000e+000 -1.000000e+000
    outer loop
      vertex   -2.012213e+001 7.912515e+000 1.843264e+001
      vertex   -2.012209e+001 1.158751e+001 1.843264e+001
      vertex   2.012210e+001 7.912515e+000 1.843264e+001
    endloop
  endfacet
  facet normal 0.000000e+000 0.000000e+000 -1.000000e+000
    outer loop
      vertex   2.012210e+001 7.912515e+000 1.843264e+001
      vertex   -2.012209e+001 1.158751e+001 1.843264e+001
      vertex   2.012210e+001 1.158751e+001 1.843264e+001
    endloop
  endfacet
  facet normal 0.000000e+000 0.000000e+000 -1.000000e+000
    outer loop
      vertex   -2.012235e+001 -1.158748e+001 1.843264e+001
      vertex   -2.012231e+001 -7.912483e+000 1.843264e+001
      vertex   2.012211e+001 -1.158748e+001 1.843264e+001
    endloop
  endfacet
  facet normal 0.000000e+000 0.000000e+000 -1.000000e+000
    outer loop
      vertex   2.012211e+001 -1.158748e+001 1.843264e+001
      vertex   -2.012231e+001 -7.912483e+000 1.843264e+001
      vertex   2.012211e+001 -7.912483e+000 1.843264e+001
    endloop
  endfacet
  facet normal 1.184854e-008 -8.660254e-001 -5.000000e-001
    outer loop
      vertex   2.012211e+001 -6.074984e+000 1.525000e+001
      vertex   2.012211e+001 -7.912483e+000 1.843264e+001
      vertex   -2.012227e+001 -6.074984e+000 1.525000e+001
    endloop
  endfacet
  facet normal 0.000000e+000 -8.660254e-001 -4.999999e-001
    outer loop
      vertex   -2.012227e+001 -6.074984e+000 1.525000e+001
      vertex   2.012211e+001 -7.912483e+000 1.843264e+001
      vertex   -2.012231e+001 -7.912483e+000 1.843264e+001
    endloop
  endfacet
  facet normal 0.000000e+000 5.190064e-007 1.000000e+000
    outer loop
      vertex   2.012211e+001 1.158751e+001 1.206736e+001
      vertex   -2.012206e+001 1.158751e+001 1.206736e+001
      vertex   2.012211e+001 7.912514e+000 1.206736e+001
    endloop
  endfacet
  facet normal 0.000000e+000 5.190064e-007 1.000000e+000
    outer loop
      vertex   2.012211e+001 7.912514e+000 1.206736e+001
      vertex   -2.012206e+001 1.158751e+001 1.206736e+001
      vertex   -2.012210e+001 7.912514e+000 1.206736e+001
    endloop
  endfacet
  facet normal 0.000000e+000 0.000000e+000 1.000000e+000
    outer loop
      vertex   -6.888285e+000 -1.662981e+001 3.020000e+001
      vertex   -1.662982e+001 -6.888287e+000 3.020000e+001
      vertex   -2.012252e+001 -2.012205e+001 3.020000e+001
    endloop
  endfacet
  facet normal 0.000000e+000 0.000000e+000 1.000000e+000
    outer loop
      vertex   -2.012252e+001 -2.012205e+001 3.020000e+001
      vertex   -1.662982e+001 -6.888287e+000 3.020000e+001
      vertex   -1.662982e+001 6.888320e+000 3.020000e+001
    endloop
  endfacet
  facet normal 0.000000e+000 0.000000e+000 1.000000e+000
    outer loop
      vertex   -2.012252e+001 -2.012205e+001 3.020000e+001
      vertex   -1.662982e+001 6.888320e+000 3.020000e+001
      vertex   -2.012207e+001 2.012211e+001 3.020000e+001
    endloop
  endfacet
  facet normal 0.000000e+000 0.000000e+000 1.000000e+000
    outer loop
      vertex   -2.012207e+001 2.012211e+001 3.020000e+001
      vertex   -1.662982e+001 6.888320e+000 3.020000e+001
      vertex   -6.888289e+000 1.662985e+001 3.020000e+001
    endloop
  endfacet
  facet normal 0.000000e+000 0.000000e+000 1.000000e+000
    outer loop
      vertex   -2.012207e+001 2.012211e+001 3.020000e+001
      vertex   -6.888289e+000 1.662985e+001 3.020000e+001
      vertex   6.888311e+000 1.662985e+001 3.020000e+001
    endloop
  endfacet
  facet normal 0.000000e+000 0.000000e+000 1.000000e+000
    outer loop
      vertex   -2.012207e+001 2.012211e+001 3.020000e+001
      vertex   6.888311e+000 1.662985e+001 3.020000e+001
      vertex   2.012209e+001 2.012210e+001 3.020000e+001
    endloop
  endfacet
  facet normal 0.000000e+000 0.000000e+000 1.000000e+000
    outer loop
      vertex   2.012209e+001 2.012210e+001 3.020000e+001
      vertex   6.888311e+000 1.662985e+001 3.020000e+001
      vertex   1.662984e+001 6.888323e+000 3.020000e+001
    endloop
  endfacet
  facet normal 0.000000e+000 0.000000e+000 1.000000e+000
    outer loop
      vertex   2.012209e+001 2.012210e+001 3.020000e+001
      vertex   1.662984e+001 6.888323e+000 3.020000e+001
      vertex   1.662985e+001 -6.888282e+000 3.020000e+001
    endloop
  endfacet
  facet normal 0.000000e+000 0.000000e+000 1.000000e+000
    outer loop
      vertex   2.012209e+001 2.012210e+001 3.020000e+001
      vertex   1.662985e+001 -6.888282e+000 3.020000e+001
      vertex   2.012210e+001 -2.012210e+001 3.020000e+001
    endloop
  endfacet
  facet normal 0.000000e+000 0.000000e+000 1.000000e+000
    outer loop
      vertex   2.012210e+001 -2.012210e+001 3.020000e+001
      vertex   1.662985e+001 -6.888282e+000 3.020000e+001
      vertex   6.888319e+000 -1.662981e+001 3.020000e+001
    endloop
  endfacet
  facet normal 0.000000e+000 0.000000e+000 1.000000e+000
    outer loop
      vertex   2.012210e+001 -2.012210e+001 3.020000e+001
      vertex   6.888319e+000 -1.662981e+001 3.020000e+001
      vertex   -6.888285e+000 -1.662981e+001 3.020000e+001
    endloop
  endfacet
  facet normal 0.000000e+000 0.000000e+000 1.000000e+000
    outer loop
      vertex   2.012210e+001 -2.012210e+001 3.020000e+001
      vertex   -6.888285e+000 -1.662981e+001 3.020000e+001
      vertex   -2.012252e+001 -2.012205e+001 3.020000e+001
    endloop
  endfacet
  facet normal -1.000000e+000 -1.384484e-007 0.000000e+000
    outer loop
      vertex   1.662985e+001 -6.888282e+000 1.970000e+001
      vertex   1.662985e+001 -6.888282e+000 3.020000e+001
      vertex   1.662984e+001 6.888321e+000 1.970000e+001
    endloop
  endfacet
  facet normal -1.000000e+000 -1.384484e-007 1.886210e-014
    outer loop
      vertex   1.662984e+001 6.888321e+000 1.970000e+001
      vertex   1.662985e+001 -6.888282e+000 3.020000e+001
      vertex   1.662984e+001 6.888323e+000 3.020000e+001
    endloop
  endfacet
  facet normal -7.071066e-001 -7.071069e-001 3.211188e-008
    outer loop
      vertex   6.888310e+000 1.662985e+001 1.970000e+001
      vertex   1.662984e+001 6.888321e+000 1.970000e+001
      vertex   6.888311e+000 1.662985e+001 3.020000e+001
    endloop
  endfacet
  facet normal -7.071065e-001 -7.071070e-001 9.633570e-008
    outer loop
      vertex   6.888311e+000 1.662985e+001 3.020000e+001
      vertex   1.662984e+001 6.888321e+000 1.970000e+001
      vertex   1.662984e+001 6.888323e+000 3.020000e+001
    endloop
  endfacet
  facet normal 2.768969e-007 -1.000000e+000 0.000000e+000
    outer loop
      vertex   -6.888289e+000 1.662985e+001 1.970000e+001
      vertex   6.888310e+000 1.662985e+001 1.970000e+001
      vertex   -6.888289e+000 1.662985e+001 3.020000e+001
    endloop
  endfacet
  facet normal 2.768969e-007 -1.000000e+000 -1.257474e-014
    outer loop
      vertex   -6.888289e+000 1.662985e+001 3.020000e+001
      vertex   6.888310e+000 1.662985e+001 1.970000e+001
      vertex   6.888311e+000 1.662985e+001 3.020000e+001
    endloop
  endfacet
  facet normal -7.071068e-001 7.071067e-001 0.000000e+000
    outer loop
      vertex   6.888319e+000 -1.662981e+001 1.970000e+001
      vertex   6.888319e+000 -1.662981e+001 3.020000e+001
      vertex   1.662985e+001 -6.888282e+000 1.970000e+001
    endloop
  endfacet
  facet normal -7.071068e-001 7.071067e-001 0.000000e+000
    outer loop
      vertex   1.662985e+001 -6.888282e+000 1.970000e+001
      vertex   6.888319e+000 -1.662981e+001 3.020000e+001
      vertex   1.662985e+001 -6.888282e+000 3.020000e+001
    endloop
  endfacet
  facet normal 7.071067e-001 -7.071068e-001 0.000000e+000
    outer loop
      vertex   -6.888289e+000 1.662985e+001 1.970000e+001
      vertex   -6.888289e+000 1.662985e+001 3.020000e+001
      vertex   -1.662982e+001 6.888320e+000 1.970000e+001
    endloop
  endfacet
  facet normal 7.071067e-001 -7.071068e-001 0.000000e+000
    outer loop
      vertex   -1.662982e+001 6.888320e+000 1.970000e+001
      vertex   -6.888289e+000 1.662985e+001 3.020000e+001
      vertex   -1.662982e+001 6.888320e+000 3.020000e+001
    endloop
  endfacet
  facet normal -1.384484e-007 1.000000e+000 0.000000e+000
    outer loop
      vertex   -6.888285e+000 -1.662981e+001 1.970000e+001
      vertex   -6.888285e+000 -1.662981e+001 3.020000e+001
      vertex   6.888319e+000 -1.662981e+001 1.970000e+001
    endloop
  endfacet
  facet normal -1.384484e-007 1.000000e+000 0.000000e+000
    outer loop
      vertex   6.888319e+000 -1.662981e+001 1.970000e+001
      vertex   -6.888285e+000 -1.662981e+001 3.020000e+001
      vertex   6.888319e+000 -1.662981e+001 3.020000e+001
    endloop
  endfacet
  facet normal 1.000000e+000 1.384484e-007 -0.000000e+000
    outer loop
      vertex   -1.662982e+001 6.888320e+000 1.970000e+001
      vertex   -1.662982e+001 6.888320e+000 3.020000e+001
      vertex   -1.662982e+001 -6.888287e+000 1.970000e+001
    endloop
  endfacet
  facet normal 1.000000e+000 1.384484e-007 -0.000000e+000
    outer loop
      vertex   -1.662982e+001 -6.888287e+000 1.970000e+001
      vertex   -1.662982e+001 6.888320e+000 3.020000e+001
      vertex   -1.662982e+001 -6.888287e+000 3.020000e+001
    endloop
  endfacet
  facet normal 7.071066e-001 7.071069e-001 -0.000000e+000
    outer loop
      vertex   -1.662982e+001 -6.888287e+000 1.970000e+001
      vertex   -1.662982e+001 -6.888287e+000 3.020000e+001
      vertex   -6.888285e+000 -1.662981e+001 1.970000e+001
    endloop
  endfacet
  facet normal 7.071066e-001 7.071069e-001 -0.000000e+000
    outer loop
      vertex   -6.888285e+000 -1.662981e+001 1.970000e+001
      vertex   -1.662982e+001 -6.888287e+000 3.020000e+001
      vertex   -6.888285e+000 -1.662981e+001 3.020000e+001
    endloop
  endfacet
  facet normal -0.000000e+000 0.000000e+000 1.000000e+000
    outer loop
      vertex   -6.888289e+000 1.662985e+001 1.970000e+001
      vertex   6.888319e+000 -1.662981e+001 1.970000e+001
      vertex   6.888310e+000 1.662985e+001 1.970000e+001
    endloop
  endfacet
  facet normal 0.000000e+000 0.000000e+000 1.000000e+000
    outer loop
      vertex   6.888310e+000 1.662985e+001 1.970000e+001
      vertex   6.888319e+000 -1.662981e+001 1.970000e+001
      vertex   1.662985e+001 -6.888282e+000 1.970000e+001
    endloop
  endfacet
  facet normal 0.000000e+000 0.000000e+000 1.000000e+000
    outer loop
      vertex   6.888310e+000 1.662985e+001 1.970000e+001
      vertex   1.662985e+001 -6.888282e+000 1.970000e+001
      vertex   1.662984e+001 6.888321e+000 1.970000e+001
    endloop
  endfacet
  facet normal 0.000000e+000 0.000000e+000 1.000000e+000
    outer loop
      vertex   -6.888289e+000 1.662985e+001 1.970000e+001
      vertex   -1.662982e+001 6.888320e+000 1.970000e+001
      vertex   6.888319e+000 -1.662981e+001 1.970000e+001
    endloop
  endfacet
  facet normal 0.000000e+000 0.000000e+000 1.000000e+000
    outer loop
      vertex   6.888319e+000 -1.662981e+001 1.970000e+001
      vertex   -1.662982e+001 6.888320e+000 1.970000e+001
      vertex   -1.662982e+001 -6.888287e+000 1.970000e+001
    endloop
  endfacet
  facet normal 0.000000e+000 0.000000e+000 1.000000e+000
    outer loop
      vertex   6.888319e+000 -1.662981e+001 1.970000e+001
      vertex   -1.662982e+001 -6.888287e+000 1.970000e+001
      vertex   -6.888285e+000 -1.662981e+001 1.970000e+001
    endloop
  endfacet
endsolid
